<svg width="592" height="782" viewBox="0 0 592 782" fill="none" xmlns="http://www.w3.org/2000/svg">
<g clip-path="url(#clip0_8_49)">
<path d="M909.645 80.3355C974.652 101.098 1022.91 168.682 1038.51 240.275C1054.26 311.726 1037.37 387.329 1012.17 451.333C986.823 515.338 953.317 567.887 908.213 598.243C862.966 628.599 806.264 636.76 751.28 654.516C696.153 672.414 643.03 699.906 568.573 716.086C494.116 732.266 398.467 737.278 318.139 698.904C237.811 660.386 172.804 578.483 202.873 508.751C233.086 439.019 358.518 381.315 405.054 291.107C451.446 200.899 419.086 78.0445 452.162 42.6773C485.095 7.45329 583.321 59.7166 673.243 72.7466C763.164 85.7766 844.781 59.5734 909.645 80.3355Z" fill="#BEAC37"/>
</g>
<defs>
<clipPath id="clip0_8_49">
<rect width="620" height="781.801" fill="white"/>
</clipPath>
</defs>
</svg>
