<svg width="600" height="745" viewBox="0 0 600 745" fill="none" xmlns="http://www.w3.org/2000/svg">
<g clip-path="url(#clip0_8_42)">
<path d="M187.524 104.968C274.355 121.932 395.401 124.376 454.199 177.423C513.14 230.471 509.978 334.122 460.38 406.001C410.64 477.738 314.608 517.559 245.028 558.243C175.449 598.927 132.177 640.33 74.3854 679.001C16.4502 717.529 -56.1485 753.469 -139.529 759.219C-222.766 765.113 -316.641 740.818 -373.57 681.158C-430.643 621.497 -450.769 526.616 -471.183 427.565C-491.741 328.515 -512.73 225.583 -483.834 138.464C-454.794 51.2023 -376.014 -20.1026 -287.745 -36.3474C-199.477 -52.5923 -101.72 -13.7772 -26.6777 21.444C48.3649 56.6651 100.837 88.1485 187.524 104.968Z" fill="#BEAC37"/>
</g>
<defs>
<clipPath id="clip0_8_42">
<rect width="599.688" height="745" fill="white"/>
</clipPath>
</defs>
</svg>
