<svg width="341" height="114" viewBox="0 0 341 114" fill="none" xmlns="http://www.w3.org/2000/svg">
<rect width="340.554" height="114" rx="10" fill="#FEFEFF"/>
<path d="M42.1478 60.3953C42.4644 62.7919 43.1426 65.0076 44.0922 67.1328C45.087 69.3485 46.3984 71.3381 48.0262 73.1468C49.9254 75.3173 52.1411 77.0808 54.6733 78.4374C57.0699 79.7487 59.6021 80.6079 62.3152 81.06C63.2196 81.1957 64.1239 81.2409 65.0735 81.3314C65.5709 81.3766 66.0683 81.4218 66.5657 81.4218C69.8667 81.3314 73.0772 80.6983 76.152 79.3418C77.9607 78.5278 79.6338 77.533 81.2164 76.3573C82.98 75.046 85.1957 75.3173 86.507 77.0808C87.6374 78.573 87.4566 80.834 85.8739 82.1001C82.5278 84.7227 78.7747 86.6219 74.6598 87.7071C72.8511 88.2045 70.9971 88.5663 69.1432 88.6567C67.6962 88.7472 66.204 88.8376 64.757 88.7472C61.7726 88.6115 58.8786 88.0237 56.0299 87.0741C52.1411 85.7175 48.6593 83.6827 45.5392 81.0148C43.414 79.1609 41.56 77.0808 40.0226 74.7295C37.8973 71.5642 36.4051 68.0824 35.5008 64.3745C35.0938 62.611 34.7773 60.8475 34.732 59.0387C34.6868 57.8631 34.5964 56.6874 34.6868 55.5117C34.9129 51.3064 35.8625 47.3272 37.6712 43.4836C39.0278 40.6349 40.7461 38.0575 42.8261 35.7513C45.7653 32.4956 49.2019 29.9182 53.1811 28.1094C56.0751 26.7981 59.1499 25.8937 62.3152 25.532C63.2196 25.4416 64.1239 25.3511 64.9831 25.3059C65.6614 25.2607 66.3848 25.2155 67.0631 25.2155C71.4493 25.3511 75.6998 26.2555 79.679 28.1546C81.8947 29.1947 83.9748 30.4608 85.8739 31.953C87.0044 32.8121 87.5018 34.3495 87.0496 35.8418C86.5974 37.2887 85.6026 38.1479 84.1104 38.4192C83.0704 38.6001 82.1208 38.3288 81.2617 37.6957C79.1364 36.0678 76.7851 34.8017 74.2528 33.8974C72.4893 33.3095 70.6806 32.9026 68.8266 32.7217C67.3796 32.586 65.9779 32.586 64.5309 32.6765C63.0387 32.7669 61.5465 33.0382 60.0995 33.4452C56.4368 34.44 53.1811 36.1583 50.3324 38.6453C47.1671 41.4036 44.8157 44.795 43.3687 48.7742C42.6905 50.6281 42.2383 52.4821 42.0574 54.4717C41.967 55.4665 41.8765 56.4613 41.8765 57.4561C41.8765 58.3605 42.0574 59.3553 42.1478 60.3953Z" fill="#017DFF"/>
<path d="M73.1676 46.2872C70.6354 44.7046 67.9223 44.0715 65.0283 44.3429C62.1343 44.6594 59.6021 45.8351 57.4768 47.8699C55.7585 49.5429 54.6281 51.5326 53.995 53.8387C53.7689 54.6526 53.6785 55.5118 53.6333 56.3257C53.5428 58.0892 53.8142 59.8075 54.4472 61.4354C55.0351 62.9728 55.8942 64.3293 56.9794 65.5502C58.3812 67.0876 60.0995 68.2181 62.0439 68.9416C63.0839 69.3033 64.1239 69.5294 65.2092 69.6199C69.2788 69.9364 72.7154 68.5798 75.5642 65.6859C76.8755 64.3293 77.7799 62.7467 78.4129 60.938C78.4581 60.8927 78.4129 60.8023 78.4581 60.6666C78.232 60.6666 78.0512 60.6666 77.8703 60.6666C75.2928 60.6666 72.7154 60.6214 70.138 60.6666C68.284 60.7119 66.4753 59.4005 66.3396 57.1396C66.204 55.2405 67.5605 53.6578 69.3692 53.3413C69.7762 53.2509 70.2284 53.2508 70.6354 53.2508C74.6598 53.2508 78.6842 53.2508 82.6634 53.2508C84.4722 53.2508 85.9644 54.3813 86.3261 56.1448C86.4618 56.8683 86.4165 57.637 86.3713 58.4057C86.0548 62.7015 84.5174 66.545 81.7591 69.846C79.046 73.0565 75.6546 75.2722 71.5849 76.3574C70.1832 76.7191 68.7362 76.9452 67.2892 77.0357C63.717 77.2165 60.3708 76.493 57.2507 74.9104C53.362 72.9208 50.4228 69.9816 48.4332 66.0928C47.3027 63.9224 46.6244 61.6162 46.3531 59.1744C45.8105 53.5674 47.2123 48.5029 50.7845 44.1168C53.8594 40.3636 57.7934 38.1027 62.5865 37.2436C64.35 36.927 66.1135 36.8366 67.9223 36.9723C71.2684 37.2436 74.3433 38.2384 77.192 40.0471C78.6842 40.9967 79.2268 43.0315 78.4581 44.6142C77.7346 46.242 75.8807 47.1464 74.1624 46.649C73.8459 46.5585 73.5293 46.4229 73.1676 46.2872ZM132.765 72.0617C131.725 71.1573 130.866 70.1625 130.052 69.1225C128.198 66.7259 127.023 64.058 126.48 61.0736C126.118 59.1292 126.028 57.1396 126.163 55.15C126.525 50.7638 128.153 46.9203 131.092 43.6646C134.031 40.3636 137.649 38.2384 141.99 37.3792C144.07 36.9723 146.15 36.8818 148.23 37.0627C152.661 37.4697 156.55 39.0975 159.851 42.0819C160.71 42.8959 161.479 43.755 162.202 44.7046C162.881 45.5637 162.79 47.0559 161.569 47.7342C160.62 48.2316 159.715 48.8195 158.811 49.3169C157.952 49.8143 156.912 49.5882 156.279 48.7742C154.199 46.1064 151.44 44.6142 148.094 44.2072C145.336 43.8907 142.668 44.162 140.226 45.4733C137.061 47.1012 134.936 49.6786 133.896 53.1152C133.444 54.6526 133.263 56.2353 133.353 57.8179C133.489 60.7119 134.393 63.3798 136.338 65.5954C138.553 68.1277 141.357 69.6199 144.703 70.0721C148.818 70.5695 152.345 69.2581 155.465 66.6355C157.274 65.098 158.359 63.1084 158.856 60.8023C158.856 60.7119 158.856 60.6214 158.856 60.4858C158.63 60.4858 158.449 60.4858 158.223 60.4858C155.013 60.4858 151.802 60.4858 148.592 60.4858C148.32 60.4858 148.004 60.4406 147.733 60.3953C146.873 60.2145 146.24 59.5362 146.24 58.6318C146.24 57.637 146.24 56.6422 146.24 55.6474C146.24 54.6978 147.009 53.9291 147.913 53.8387C148.004 53.8387 148.14 53.8387 148.23 53.8387C153.294 53.8387 158.359 53.8387 163.423 53.8387C164.509 53.8387 165.277 54.3361 165.775 55.2857C165.91 55.557 166.001 55.8283 166.001 56.1448C166.001 58.9031 165.91 61.6614 164.916 64.2841C164.147 66.4094 163.152 68.399 161.705 70.1173C160.303 71.7904 158.54 73.1469 156.641 74.2321C154.38 75.4982 152.028 76.4026 149.451 76.8096C148.049 77.0357 146.647 77.1261 145.246 77.0357C143.889 76.9452 142.532 76.7644 141.221 76.493C138.101 75.7696 135.343 74.413 132.946 72.2877C132.901 72.1973 132.856 72.1521 132.765 72.0617ZM234.687 50.6734C234.687 49.4977 234.733 48.3673 234.687 47.282C234.642 46.3325 235.366 45.5637 236.406 45.5637C237.717 45.609 239.028 45.5637 240.34 45.5637C241.38 45.5637 242.058 46.3325 242.058 47.2368C242.058 56.5066 242.058 65.7311 242.058 75.0008C242.058 76.0409 241.47 76.6287 240.43 76.6287C239.074 76.6287 237.717 76.6287 236.36 76.6287C235.366 76.6287 234.778 76.0409 234.733 75.0461C234.733 74.2774 234.733 73.4634 234.733 72.6495C234.461 72.6495 234.371 72.8756 234.235 73.0112C232.879 74.3678 231.341 75.453 229.578 76.1765C228.447 76.6739 227.226 76.9452 226.005 77.0357C223.383 77.307 220.896 76.8096 218.544 75.6339C216.148 74.4582 214.249 72.6495 212.802 70.3434C211.4 68.0825 210.586 65.6407 210.315 62.9728C209.998 59.7171 210.315 56.5518 211.671 53.5222C213.751 48.9551 217.278 46.1064 222.252 45.202C224.558 44.795 226.865 44.8855 229.08 45.6542C230.979 46.3325 232.562 47.3725 233.738 49.0003C234.054 49.4073 234.235 49.9047 234.506 50.3569C234.506 50.583 234.597 50.6282 234.687 50.6734ZM217.595 59.9432C217.504 61.0284 217.55 62.1589 217.776 63.2441C218.183 65.098 218.951 66.8163 220.263 68.2181C221.891 69.9364 223.88 70.7503 226.231 70.7051C228.719 70.6599 230.753 69.6651 232.381 67.8564C233.919 66.1381 234.552 64.058 234.642 61.7971C234.733 60.3953 234.552 58.9936 234.145 57.6822C233.286 55.0596 231.612 53.2056 229.035 52.1656C227.678 51.623 226.322 51.4873 224.875 51.7134C223.971 51.8491 223.066 52.0752 222.252 52.5274C219.358 54.0648 218.002 56.6422 217.595 59.9432ZM180.154 48.729C178.526 50.8543 177.667 53.2509 177.486 55.8735C177.351 57.7275 177.531 59.491 178.074 61.2545C178.617 63.1537 179.657 64.8267 181.013 66.2285C183.138 68.4442 185.806 69.5294 188.836 69.846C190.916 70.0721 192.996 69.846 194.94 69.0772C197.111 68.2633 198.874 66.952 200.186 65.0076C200.774 64.1937 201.497 63.9676 202.356 64.4198C203.532 65.0528 204.753 65.7311 205.883 66.4546C206.742 66.952 206.923 67.9016 206.335 68.7607C204.934 70.9312 203.08 72.6495 200.909 74.006C198.648 75.453 196.161 76.3574 193.539 76.7644C192.273 76.9452 190.961 77.0809 189.65 76.9904C186.937 76.8548 184.314 76.4026 181.782 75.2722C179.792 74.3678 178.029 73.1921 176.446 71.6999C174.773 70.1173 173.371 68.3085 172.331 66.2737C171.472 64.6459 170.93 62.9276 170.568 61.1188C170.206 59.1744 170.07 57.1848 170.251 55.1952C170.613 50.6734 172.196 46.7394 175.27 43.348C178.436 39.8662 182.325 37.8314 186.937 37.1531C188.655 36.8818 190.419 36.8366 192.182 36.9723C196.478 37.334 200.276 38.9619 203.532 41.8558C204.572 42.8054 205.476 43.8454 206.29 44.9759C207.014 45.9707 206.607 47.0107 205.702 47.5081C204.617 48.096 203.577 48.729 202.492 49.3621C201.859 49.7238 201.226 49.8143 200.638 49.3621C200.502 49.2716 200.367 49.136 200.276 48.9551C198.467 46.242 195.89 44.6594 192.725 44.162C188.972 43.5289 185.49 44.162 182.37 46.4681C181.511 47.1916 180.832 47.9151 180.154 48.729ZM280.448 76.6287C279.86 76.6287 279.318 76.5835 278.775 76.6287C278.052 76.6739 277.238 75.9052 277.328 75.1365C277.328 75.0461 277.328 74.9104 277.328 74.82C277.328 62.2493 277.328 49.6334 277.328 37.0627C277.328 36.9723 277.328 36.8366 277.328 36.7462C277.328 35.9322 277.961 35.2992 278.775 35.2992C280.222 35.2992 281.669 35.2992 283.161 35.2992C283.93 35.2992 284.608 35.9775 284.608 36.8818C284.563 40.5897 284.608 44.3428 284.608 48.0507C284.608 48.2316 284.608 48.4577 284.608 48.729C284.699 48.6838 284.789 48.6838 284.834 48.6386C286.462 47.2368 288.361 46.3777 290.487 45.9255C291.301 45.7446 292.115 45.6994 292.928 45.6542C295.054 45.5637 297.043 45.8803 298.988 46.7394C301.294 47.7794 303.012 49.4073 304.188 51.623C305.273 53.6578 305.816 55.8283 305.816 58.1344C305.861 63.6963 305.861 69.3033 305.906 74.8652C305.906 75.0913 305.861 75.3626 305.816 75.5887C305.635 76.2217 305.092 76.6287 304.414 76.6287C303.012 76.6287 301.565 76.6287 300.163 76.6287C299.349 76.6287 298.762 76.0409 298.671 75.2269C298.671 75.0913 298.671 74.9104 298.671 74.7748C298.671 69.7103 298.671 64.6911 298.671 59.6266C298.671 57.8179 298.309 56.0996 297.36 54.5622C296.275 52.7987 294.692 51.8491 292.657 51.5778C291.255 51.3969 289.899 51.5778 288.633 52.1656C287.186 52.8439 286.191 54.0196 285.513 55.4665C285.015 56.5518 284.744 57.7275 284.744 58.9484C284.699 64.2841 284.699 69.6199 284.654 74.9556C284.654 75.2269 284.654 75.4983 284.563 75.7243C284.292 76.267 283.885 76.6287 283.207 76.5835C282.257 76.6287 281.398 76.6287 280.448 76.6287ZM262.813 52.4369C261.547 51.4873 260.1 51.3065 258.653 51.3969C257.839 51.4421 257.025 51.5778 256.302 51.9395C255.307 52.3917 254.674 53.1604 254.719 54.2909C254.719 54.9692 255.036 55.4665 255.533 55.9187C256.166 56.5066 256.935 56.8683 257.749 57.1396C259.241 57.637 260.778 58.044 262.27 58.4962C263.989 58.9936 265.662 59.5362 267.244 60.3953C268.918 61.2997 270.319 62.4302 271.133 64.1485C272.58 67.1329 272.128 70.9312 269.731 73.4634C268.104 75.1817 266.069 76.1765 263.763 76.7191C262.225 77.0809 260.688 77.2165 259.105 77.1261C255.895 76.9452 252.91 76.0409 250.423 73.9608C248.615 72.4234 247.394 70.5242 246.987 68.1277C246.851 67.359 247.348 66.5902 248.117 66.4094C248.343 66.3642 248.615 66.3189 248.886 66.3189C250.107 66.3189 251.373 66.3189 252.594 66.3189C252.82 66.3189 253.046 66.3642 253.317 66.4094C253.86 66.4998 254.267 66.8616 254.448 67.359C255.081 69.3486 256.573 70.2981 258.472 70.7051C259.964 71.0216 261.457 70.886 262.904 70.2981C263.582 70.0268 264.17 69.5747 264.531 68.8964C264.984 68.0372 264.848 66.8616 263.989 66.1381C263.22 65.5502 262.406 65.1433 261.502 64.872C259.829 64.3746 258.156 63.9224 256.483 63.425C254.809 62.9276 253.182 62.3849 251.689 61.5258C250.514 60.8475 249.519 60.0336 248.75 58.9031C247.846 57.5918 247.439 56.0996 247.439 54.5622C247.394 51.4873 248.75 49.1812 251.192 47.4177C252.865 46.242 254.719 45.609 256.709 45.2924C258.065 45.0663 259.467 45.0211 260.823 45.1116C263.265 45.2924 265.571 45.8803 267.606 47.3272C269.731 48.8647 270.952 50.9899 271.495 53.5222C271.54 53.703 271.585 53.9291 271.585 54.11C271.631 55.0144 270.952 55.7379 270.048 55.7831C268.646 55.7831 267.245 55.7831 265.843 55.7831C265.074 55.7831 264.531 55.3761 264.305 54.6526C263.989 53.7935 263.537 53.07 262.813 52.4369Z" fill="#012DB8"/>
<path d="M102.559 57.3657C102.559 53.1604 101.926 49.136 100.57 45.202C100.072 43.755 99.4846 42.3532 98.8063 40.9967C98.4446 40.3184 98.2637 39.5949 98.2637 38.8262C98.3089 37.1531 99.6655 35.6157 101.339 35.3444C103.283 35.0731 104.685 36.2035 105.273 37.4244C107.036 41.0419 108.347 44.795 109.116 48.729C109.478 50.5377 109.749 52.3012 109.794 54.11C109.84 55.8735 109.93 57.5918 109.84 59.3553C109.704 61.8875 109.342 64.4197 108.754 66.9067C107.94 70.2981 106.765 73.5538 105.182 76.6739C104.142 78.7087 101.248 79.5226 99.3038 77.6687C98.1733 76.5835 97.8568 74.9556 98.6255 73.4182C99.5751 71.519 100.389 69.5746 100.977 67.5398C101.474 65.8667 101.881 64.1936 102.107 62.4753C102.243 61.2997 102.333 60.124 102.469 58.9031C102.514 58.4509 102.514 57.9535 102.559 57.3657ZM88.1801 45.0211C88.2253 44.8402 88.2253 44.7046 88.2705 44.5237C88.5418 43.0315 89.9436 41.8106 91.3453 41.6297C93.4254 41.4036 94.7367 42.6697 95.3245 43.9358C96.2741 46.1515 97.0428 48.4125 97.495 50.809C97.6759 51.8038 97.8115 52.7986 97.902 53.7934C97.9924 54.9239 98.0829 56.0544 98.0829 57.1848C98.0829 59.4457 97.8115 61.7066 97.3141 63.8771C96.8167 66.0476 96.1385 68.1728 95.1889 70.2077C94.601 71.519 93.561 72.2425 92.1593 72.3782C90.6671 72.5138 89.4914 71.926 88.7227 70.6599C87.9992 69.5294 87.9992 68.3085 88.587 67.0876C89.5366 65.0528 90.1244 62.9727 90.4862 60.7571C90.8027 58.8579 90.8479 56.9587 90.7123 55.0595C90.4862 52.2108 89.8079 49.4977 88.587 46.875C88.3157 46.3324 88.1801 45.6994 88.1801 45.0211Z" fill="#70BAF7"/>
<path d="M217.64 59.8979C218.002 56.6422 219.358 54.0647 222.297 52.4821C223.111 52.0299 224.016 51.8038 224.92 51.6681C226.367 51.442 227.724 51.6229 229.08 52.1203C231.658 53.1151 233.331 55.0143 234.19 57.637C234.642 58.9935 234.778 60.3501 234.687 61.7518C234.552 64.0127 233.919 66.0928 232.426 67.8111C230.799 69.665 228.764 70.6146 226.277 70.6598C223.925 70.705 221.936 69.8911 220.308 68.1728C218.997 66.771 218.228 65.098 217.821 63.1988C217.55 62.1136 217.504 61.0283 217.64 59.8979Z" fill="#FEFEFF"/>
</svg>
