<svg width="342" height="114" viewBox="0 0 342 114" fill="none" xmlns="http://www.w3.org/2000/svg">
<rect x="0.55423" width="340.55" height="114" rx="10" fill="black"/>
<path d="M107.724 33C102.481 32.9986 97.4461 35.0492 93.6957 38.7131L95.7288 42.576L94.8952 43.247C93.1334 40.1948 90.6086 37.653 87.5683 35.8708C84.5279 34.0887 81.0765 33.1274 77.5527 33.0813C66.4924 33.0813 57.5467 42.759 57.5467 54.1038V78.5014C57.5381 78.7093 57.5727 78.9167 57.6483 79.1105C57.724 79.3043 57.839 79.4804 57.9861 79.6275C58.1332 79.7746 58.3092 79.8896 58.5031 79.9653C58.6969 80.0409 58.9044 80.0755 59.1122 80.0668H67.1228C67.3184 80.0696 67.5127 80.033 67.694 79.9596C67.8753 79.8859 68.0399 79.7766 68.1783 79.6382C68.3167 79.4999 68.4259 79.3351 68.4995 79.1539C68.5731 78.9725 68.6096 78.7783 68.6069 78.5827V53.8395C68.6069 48.2078 72.0225 43.6739 77.8373 43.6739C83.2657 43.6739 87.1491 47.7402 87.1491 53.738V74.0691C87.1351 74.2707 87.1627 74.473 87.2297 74.6636C87.2968 74.8542 87.4021 75.0292 87.5391 75.1777C87.6762 75.326 87.8422 75.4449 88.0268 75.5271C88.2114 75.6091 88.4108 75.6527 88.6129 75.655H96.1965C96.3984 75.6527 96.598 75.6091 96.7826 75.5271C96.9672 75.4449 97.1332 75.326 97.2703 75.1777C97.4073 75.0292 97.5126 74.8542 97.5797 74.6636C97.6468 74.473 97.6741 74.2707 97.6603 74.0691V53.738C97.5702 52.4395 97.7504 51.1364 98.1894 49.9113C98.6284 48.6861 99.3167 47.5651 100.211 46.6194C101.105 45.6736 102.186 44.9236 103.384 44.4166C104.583 43.9096 105.874 43.6567 107.175 43.6739C112.97 43.6739 116.202 48.2891 116.202 53.8395V78.5421C116.218 78.9446 116.391 79.3252 116.683 79.6025C116.976 79.8797 117.365 80.0318 117.768 80.0262H125.697C125.906 80.038 126.115 80.0056 126.31 79.931C126.505 79.8566 126.682 79.7416 126.83 79.5939C126.978 79.4461 127.093 79.2688 127.168 79.0735C127.242 78.8781 127.274 78.6693 127.263 78.4607V54.0632C127.263 42.6777 118.703 33 107.724 33Z" fill="#2DF39E"/>
<path d="M179.006 33.8946H171.727C171.525 33.8805 171.322 33.9086 171.131 33.9771C170.94 34.0456 170.765 34.153 170.618 34.2926C170.471 34.4321 170.355 34.6007 170.276 34.7877C170.197 34.9747 170.158 35.176 170.162 35.3788V36.375L172.744 40.4413L172.032 41.1325C169.901 38.6199 167.255 36.5937 164.274 35.1908C161.293 33.7878 158.045 33.0408 154.751 33C148.609 33.2913 142.814 35.9314 138.564 40.3745C134.314 44.8176 131.934 50.7239 131.916 56.8724C131.897 63.0209 134.242 68.9413 138.466 73.4095C142.69 77.8779 148.468 80.5523 154.608 80.8802C157.918 80.8447 161.183 80.1004 164.181 78.6977C167.18 77.2948 169.843 75.266 171.991 72.7476L172.601 73.2356L170.019 77.4645V78.3997C170.017 78.6061 170.055 78.8108 170.133 79.002C170.211 79.1933 170.326 79.3669 170.472 79.5128C170.618 79.6588 170.791 79.774 170.983 79.8516C171.174 79.9293 171.379 79.9681 171.585 79.9653H179.006C179.214 79.977 179.423 79.9446 179.619 79.8701C179.814 79.7957 179.991 79.6806 180.139 79.5329C180.287 79.3852 180.402 79.2078 180.476 79.0125C180.551 78.8172 180.583 78.6084 180.571 78.3997V35.3788C180.581 35.1742 180.547 34.9699 180.47 34.7799C180.394 34.5899 180.278 34.4186 180.129 34.2776C179.98 34.1368 179.803 34.0296 179.609 33.9635C179.415 33.8974 179.209 33.8739 179.006 33.8946ZM154.608 70.5925C150.99 70.5925 147.52 69.1552 144.962 66.5967C142.403 64.0383 140.966 60.5684 140.966 56.9502C140.966 53.3321 142.403 49.8622 144.962 47.3037C147.52 44.7453 150.99 43.308 154.608 43.308C158.226 43.308 161.696 44.7453 164.255 47.3037C166.813 49.8622 168.251 53.3321 168.251 56.9502C168.251 60.5684 166.813 64.0383 164.255 66.5967C161.696 69.1552 158.226 70.5925 154.608 70.5925Z" fill="#2DF39E"/>
<path d="M228.104 33.002H220.643C219.443 33.002 218.793 33.6526 218.793 34.2829V56.7896C218.899 58.3631 218.669 59.9411 218.121 61.4197C217.572 62.8983 216.716 64.2437 215.609 65.3674C214.502 66.4913 213.171 67.3678 211.701 67.9393C210.232 68.5109 208.657 68.7645 207.082 68.6834C200.535 68.6834 196.306 63.8039 196.306 56.7896V34.2829C196.306 33.6526 195.29 33.002 194.639 33.002H186.507C186.176 33.0297 185.866 33.1735 185.632 33.408C185.397 33.6425 185.253 33.9524 185.226 34.2829V56.6473C185.16 62.4932 187.412 68.1274 191.489 72.318C195.565 76.5088 201.135 78.9153 206.98 79.0117C212.566 79.0168 217.961 76.9774 222.148 73.2782L222.574 73.6645L219.26 78.178V79.9876C219.26 84.6028 212.327 87.1848 208.281 87.1848H205.699C205.492 87.1711 205.284 87.1987 205.088 87.2662C204.891 87.3336 204.71 87.4395 204.555 87.5776C204.4 87.7157 204.273 87.8834 204.184 88.0707C204.094 88.2581 204.042 88.4615 204.032 88.6691V96.0289C204.068 96.4423 204.261 96.8262 204.571 97.1021C204.881 97.378 205.285 97.525 205.699 97.5131H208.281C220.643 97.5131 229.669 90.3158 229.669 76.755V34.2829C229.615 33.913 229.424 33.5769 229.135 33.3401C228.845 33.1033 228.477 32.9828 228.104 33.002Z" fill="#2DF39E"/>
<path d="M282.545 33.8946H275.267C275.065 33.8805 274.862 33.9086 274.67 33.9771C274.479 34.0456 274.305 34.153 274.158 34.2926C274.011 34.4321 273.895 34.6007 273.816 34.7877C273.737 34.9747 273.698 35.176 273.701 35.3788V36.375L276.284 40.4413L275.572 41.1325C273.44 38.6199 270.794 36.5937 267.813 35.1908C264.832 33.7878 261.585 33.0408 258.291 33C251.933 33 245.836 35.5255 241.341 40.0208C236.845 44.5162 234.32 50.6132 234.32 56.9705C234.32 63.328 236.845 69.4249 241.341 73.9203C245.836 78.4157 251.933 80.9411 258.291 80.9411C261.6 80.9056 264.865 80.1614 267.863 78.7586C270.861 77.3558 273.524 75.3269 275.673 72.8087L276.284 73.2967L273.701 77.5256V78.4607C273.698 78.6671 273.737 78.8719 273.814 79.0631C273.893 79.2542 274.008 79.4278 274.154 79.5738C274.299 79.7197 274.473 79.8349 274.665 79.9127C274.856 79.9904 275.06 80.029 275.267 80.0262H282.545C282.754 80.038 282.963 80.0056 283.159 79.9312C283.354 79.8566 283.531 79.7417 283.678 79.5938C283.827 79.4461 283.941 79.2688 284.016 79.0734C284.09 78.8783 284.123 78.6695 284.11 78.4607V35.3788C284.121 35.1742 284.086 34.9699 284.01 34.7799C283.934 34.5899 283.817 34.4186 283.669 34.2776C283.52 34.1368 283.343 34.0296 283.149 33.9635C282.956 33.8974 282.749 33.8739 282.545 33.8946ZM258.291 70.5925C254.672 70.5925 251.201 69.1552 248.644 66.5968C246.086 64.0383 244.647 60.5684 244.647 56.9502C244.647 53.3321 246.086 49.8622 248.644 47.3037C251.201 44.7453 254.672 43.308 258.291 43.308C261.909 43.308 265.378 44.7453 267.937 47.3037C270.495 49.8622 271.932 53.3321 271.932 56.9502C271.932 60.5684 270.495 64.0383 267.937 66.5968C265.378 69.1552 261.909 70.5925 258.291 70.5925Z" fill="#2DF39E"/>
</svg>
